<svg width="140" height="122" viewBox="0 0 140 122" fill="none" xmlns="http://www.w3.org/2000/svg">
<path fill-rule="evenodd" clip-rule="evenodd" d="M87.5 104.571C92.0962 104.571 96.6476 103.67 100.894 101.918C105.14 100.166 108.999 97.599 112.249 94.3621C115.499 91.1253 118.077 87.2826 119.836 83.0534C121.595 78.8246 122.5 74.2917 122.5 69.7143C122.5 55.8474 116.969 42.548 107.123 32.7427C97.2776 22.9372 83.9237 17.4286 70 17.4286C56.0763 17.4286 42.7224 22.9372 32.8769 32.7427C23.0312 42.548 17.5 55.8474 17.5 69.7143C17.5 74.2917 18.4053 78.8246 20.1642 83.0534C21.9231 87.2826 24.5012 91.1253 27.7513 94.3621C31.0013 97.599 34.8597 100.166 39.1062 101.918C43.3524 103.67 47.9038 104.571 52.5 104.571H87.5ZM70 31.3714C59.7891 31.3714 49.9964 35.411 42.7763 42.6017C35.5561 49.7924 31.5 59.5451 31.5 69.7143C31.5 72.4607 32.0432 75.1802 33.0985 77.7178C34.1539 80.2554 35.7007 82.5609 37.6509 84.5028C39.6007 86.445 41.9157 87.9854 44.4637 89.0367C47.0117 90.0876 49.7424 90.6286 52.5 90.6286H87.5C90.2577 90.6286 92.9883 90.0876 95.5364 89.0367C98.0844 87.9854 100.399 86.445 102.349 84.5028C104.299 82.5609 105.846 80.2554 106.902 77.7178C107.957 75.1802 108.5 72.4607 108.5 69.7143C108.5 59.5451 104.444 49.7924 97.2237 42.6017C90.0035 35.411 80.2109 31.3714 70 31.3714Z" fill="#3064E8"/>
<path fill-rule="evenodd" clip-rule="evenodd" d="M45.5 122C39.5248 122 33.6083 120.648 28.0879 118.02C22.5677 115.392 17.5518 111.541 13.3266 106.686C9.10165 101.831 5.75011 96.067 3.46348 89.7233C1.1769 83.3797 0 76.5804 0 69.7143C0 51.225 7.37499 33.4928 20.5025 20.4188C33.6301 7.34489 51.435 0 70 0C88.565 0 106.37 7.34489 119.497 20.4188C132.625 33.4928 140 51.225 140 69.7143C140 76.5804 138.823 83.3797 136.536 89.7233C134.25 96.067 130.898 101.831 126.673 106.686C122.448 111.541 117.432 115.392 111.912 118.02C106.392 120.648 100.475 122 94.5 122H45.5ZM30.402 30.2779C40.9041 19.8188 55.1478 13.9429 70 13.9429C84.8522 13.9429 99.0958 19.8188 109.598 30.2779C120.1 40.7372 126 54.9227 126 69.7143C126 75.0052 125.091 80.2087 123.36 85.0124C121.629 89.8157 119.132 94.0634 116.094 97.5543C113.059 101.041 109.566 103.683 105.875 105.44C102.193 107.193 98.335 108.057 94.5 108.057H45.5C41.6651 108.057 37.8067 107.193 34.125 105.44C30.4342 103.683 26.9409 101.041 23.9063 97.5543C20.8685 94.0634 18.3716 89.8157 16.6402 85.0124C14.9086 80.2087 14 75.0052 14 69.7143C14 54.9227 19.9 40.7372 30.402 30.2779Z" fill="#3064E8"/>
<path d="M88.25 87H69.9839C68.7575 86.999 67.5403 86.8827 66.35 86.6566C64.0432 86.218 61.8375 85.3653 59.861 84.1348C56.8596 82.2669 54.5203 79.6121 53.1392 76.5056C52.6913 75.4981 52.3504 74.4581 52.1187 73.4C51.6354 71.1951 51.6248 68.9117 52.1008 66.6833C52.8048 63.3856 54.543 60.3566 57.0954 57.9793C59.6475 55.6017 62.8993 53.9826 66.4394 53.3267C66.5504 53.306 66.661 53.2866 66.7719 53.2679C67.8418 53.0891 68.9222 53 70 53C72.3853 53 74.7589 53.4355 76.9839 54.294C80.3186 55.5806 83.1688 57.7597 85.1741 60.5551C87.1798 63.351 88.25 66.6377 88.25 70H73.65C73.65 69.3275 73.4361 68.6703 73.035 68.111C72.6338 67.552 72.0637 67.1161 71.3969 66.8587C70.73 66.6014 69.996 66.534 69.2879 66.6653C68.5798 66.7965 67.9294 67.1202 67.4191 67.5959C66.9084 68.0712 66.561 68.6771 66.4201 69.3367C66.2792 69.9963 66.3515 70.68 66.6278 71.3012C66.9041 71.9224 67.372 72.4534 67.9721 72.8271C68.5725 73.2008 69.278 73.4 70 73.4H88.25C88.7292 73.4 89.2041 73.312 89.6469 73.1413C90.0896 72.9702 90.4918 72.72 90.8309 72.4041C91.17 72.0883 91.4386 71.7136 91.6222 71.3012C91.8055 70.8888 91.9 70.4464 91.9 70C91.9 64.5896 89.5928 59.4008 85.4855 55.5752C81.3785 51.7491 75.8082 49.6 70 49.6C69.37 49.6 68.7429 49.6252 68.1203 49.6751C66.5898 49.7979 65.0853 50.0699 63.6307 50.482C62.1996 50.8869 60.8166 51.4278 59.5037 52.0956C57.9999 52.8606 56.5881 53.7922 55.3014 54.8775C55.0335 55.1032 54.7711 55.3358 54.5145 55.5752C52.7176 57.2486 51.2653 59.1836 50.1998 61.2834C49.6673 62.3333 49.2311 63.4244 48.8975 64.545C48.5157 65.8262 48.2675 67.1454 48.1606 68.485C48.1204 68.9875 48.1 69.4927 48.1 70C48.1 72.6659 48.661 75.3196 49.767 77.8067C51.4248 81.5345 54.2316 84.7203 57.8331 86.9619C57.8535 86.9748 57.874 86.9874 57.8944 87H51.75C49.3534 87 46.9802 86.5604 44.7661 85.706C42.552 84.8515 40.5401 83.5993 38.8454 82.0207C37.1507 80.4421 35.8064 78.568 34.8892 76.5056C33.9719 74.4431 33.5 72.2324 33.5 70C33.5 60.9825 37.3456 52.3346 44.1905 45.9583C51.0357 39.5822 60.3195 36 70 36C79.6805 36 88.9643 39.5822 95.8095 45.9583C102.654 52.3346 106.5 60.9825 106.5 70C106.5 72.2324 106.028 74.4431 105.111 76.5056C104.194 78.568 102.849 80.4421 101.155 82.0207C99.4599 83.5993 97.448 84.8515 95.2339 85.706C93.0198 86.5604 90.6466 87 88.25 87Z" fill="#3064E8"/>
</svg>
